<svg data-v-0dd9719b="" version="1.0" xmlns="http://www.w3.org/2000/svg" xmlns:xlink="http://www.w3.org/1999/xlink" width="100%" height="100%" viewBox="0 0 340.000000 250.000000" preserveAspectRatio="xMidYMid meet" color-interpolation-filters="sRGB" style="margin: auto;"> <rect data-v-0dd9719b="" x="0" y="0" width="100%" height="100%" fill="#fff" fill-opacity="1" class="background"></rect> <rect data-v-0dd9719b="" x="0" y="0" width="100%" height="100%" fill="url(#watermark)" fill-opacity="1" class="watermarklayer"></rect> <g data-v-0dd9719b="" fill="#4c9e00" class="icon-text-wrapper icon-svg-group iconsvg" transform="translate(48.625,96.0636978149414)"><g class="iconsvg-imagesvg" transform="translate(0,0)"><g><rect fill="#4c9e00" fill-opacity="0" stroke-width="2" x="0" y="0" width="60" height="57.87260310968788" class="image-rect"></rect> <svg x="0" y="0" width="60" height="57.87260310968788" filtersec="colorsb2948644530" class="image-svg-svg primary" style="overflow: visible;"><svg xmlns="http://www.w3.org/2000/svg" viewBox="0.028098106384277344 -0.00029046472627669573 71.40190124511719 68.87029266357422"><defs><linearGradient id="a964e71f8-0205-4746-bbde-5aeb5efde49f" x1="35.71" y1="72.4" x2="35.71" y2="-.81" gradientUnits="userSpaceOnUse"><stop offset="0" stop-color="#4c9e00"></stop><stop offset="0" stop-color="#4c9e00"></stop><stop offset="1" stop-color="#86d500"></stop></linearGradient><linearGradient id="b5c037f79-ccfd-4776-b8c8-47b5f8cd1fb1" x1="29.61" y1="48.59" x2="48.76" y2="35.13" gradientUnits="userSpaceOnUse"><stop offset="0" stop-color="#4c9e00"></stop><stop offset="0" stop-color="#4c9e00"></stop><stop offset="1" stop-color="#86d500"></stop></linearGradient></defs><g style="isolation:isolate"><g><path d="M7 55.78c-10.5-2-6.16-12.95-5.67-14.35 1.3.7 11.94 5.74 5.67 14.35zm64.43-21.35a33.85 33.85 0 0 1-10.15 24.15 36 36 0 0 1-25.2 10.29H10.75c0-5 3.64-11.74 7.82-14.89 29.28 13 38.25-21.9 39.7-26.4-4.61-.61-38.83-7.14-40.72 23a22.41 22.41 0 0 0-6.8 7.07V0h25.33a35.65 35.65 0 0 1 25.2 10.29 33.85 33.85 0 0 1 10.15 24.14zM29.77 12.72C28.23 13 21.32 14 18.57 20a9.88 9.88 0 0 0 .66 9.41 10.23 10.23 0 0 0 9-4.45c3.31-4.6 1.77-10.86 1.54-12.24zm26 16.18c-3.94-.56-33.89-6.3-33.77 21.35C46.93 62.22 54.49 32.68 55.75 28.9zm-28.25-12c-1.25.37-11 2.79-7.15 11.06 9.09.16 7.27-9.73 7.13-11.04z" fill="url(#a964e71f8-0205-4746-bbde-5aeb5efde49f)"></path><path d="M29.09 45.7c11-2.1 7.63-11.2 19.66-12.53-.84 2.17-5.88 18.34-19.66 12.53z" fill-rule="evenodd" fill="url(#b5c037f79-ccfd-4776-b8c8-47b5f8cd1fb1)" style="mix-blend-mode:multiply"></path></g></g></svg></svg> <!----></g></g> <g transform="translate(67,6.666301727294922)"><g data-gra="path-name" fill-rule="" class="tp-name iconsvg-namesvg"><g transform="scale(1)"><g><path d="M6.91 0Q5.45 0 4.63-0.8 3.8-1.6 3.8-3.05L3.8-3.05 3.8-32.23Q3.8-33.68 4.63-34.48 5.45-35.28 6.91-35.28L6.91-35.28 16.81-35.28Q25.47-35.28 30.25-30.65 35.03-26.02 35.03-17.66L35.03-17.66Q35.03-9.26 30.25-4.63 25.47 0 16.81 0L16.81 0 6.91 0ZM16.41-5.25Q28.57-5.25 28.57-17.66L28.57-17.66Q28.57-30.03 16.41-30.03L16.41-30.03 10.26-30.03 10.26-5.25 16.41-5.25ZM54.65-24.97Q55.95-25.07 56.7-24.42 57.45-23.77 57.45-22.47L57.45-22.47Q57.45-21.12 56.8-20.47 56.15-19.82 54.45-19.62L54.45-19.62 52.94-19.47Q49.99-19.17 48.62-17.46 47.24-15.76 47.24-13.21L47.24-13.21 47.24-2.7Q47.24-1.25 46.34-0.48 45.44 0.3 44.09 0.3L44.09 0.3Q42.74 0.3 41.86-0.48 40.98-1.25 40.98-2.7L40.98-2.7 40.98-22.07Q40.98-23.47 41.86-24.22 42.74-24.97 44.04-24.97L44.04-24.97Q45.34-24.97 46.14-24.25 46.94-23.52 46.94-22.17L46.94-22.17 46.94-20.17Q47.89-22.37 49.77-23.57 51.64-24.77 53.94-24.92L53.94-24.92 54.65-24.97ZM79.02-6.71Q79.87-6.71 80.39-6.06 80.92-5.4 80.92-4.3L80.92-4.3Q80.92-2.75 79.07-1.7L79.07-1.7Q77.36-0.75 75.21-0.18 73.06 0.4 71.11 0.4L71.11 0.4Q65.2 0.4 61.75-3 58.3-6.41 58.3-12.31L58.3-12.31Q58.3-16.06 59.8-18.97 61.3-21.87 64.03-23.47 66.76-25.07 70.21-25.07L70.21-25.07Q73.51-25.07 75.96-23.62 78.42-22.17 79.77-19.52 81.12-16.86 81.12-13.26L81.12-13.26Q81.12-11.11 79.22-11.11L79.22-11.11 64.45-11.11Q64.75-7.66 66.41-6.03 68.06-4.4 71.21-4.4L71.21-4.4Q72.81-4.4 74.04-4.8 75.26-5.2 76.81-5.9L76.81-5.9Q78.32-6.71 79.02-6.71L79.02-6.71ZM70.36-20.67Q67.81-20.67 66.28-19.07 64.75-17.46 64.45-14.46L64.45-14.46 75.76-14.46Q75.66-17.51 74.26-19.09 72.86-20.67 70.36-20.67L70.36-20.67ZM96.83-25.07Q101.93-25.07 104.41-22.54 106.89-20.02 106.89-14.86L106.89-14.86 106.89-2.65Q106.89-1.3 106.09-0.53 105.29 0.25 103.89 0.25L103.89 0.25Q102.59 0.25 101.76-0.55 100.93-1.35 100.93-2.65L100.93-2.65 100.93-3.75Q100.08-1.8 98.26-0.7 96.43 0.4 94.03 0.4L94.03 0.4Q91.58 0.4 89.57-0.6 87.57-1.6 86.42-3.35 85.27-5.1 85.27-7.26L85.27-7.26Q85.27-9.96 86.65-11.51 88.02-13.06 91.13-13.76 94.23-14.46 99.68-14.46L99.68-14.46 100.93-14.46 100.93-15.61Q100.93-18.07 99.88-19.19 98.83-20.32 96.48-20.32L96.48-20.32Q95.03-20.32 93.53-19.89 92.03-19.47 89.97-18.67L89.97-18.67Q88.67-18.02 88.07-18.02L88.07-18.02Q87.17-18.02 86.6-18.67 86.02-19.32 86.02-20.37L86.02-20.37Q86.02-21.22 86.45-21.84 86.87-22.47 87.87-23.02L87.87-23.02Q89.62-23.97 92.05-24.52 94.48-25.07 96.83-25.07L96.83-25.07ZM95.28-4.1Q97.78-4.1 99.36-5.78 100.93-7.46 100.93-10.11L100.93-10.11 100.93-11.16 100.03-11.16Q96.68-11.16 94.83-10.86 92.98-10.56 92.18-9.81 91.38-9.06 91.38-7.76L91.38-7.76Q91.38-6.16 92.5-5.13 93.63-4.1 95.28-4.1L95.28-4.1ZM142.32-25.07Q146.32-25.07 148.45-22.69 150.58-20.32 150.58-15.01L150.58-15.01 150.58-2.7Q150.58-1.25 149.7-0.48 148.82 0.3 147.42 0.3L147.42 0.3Q146.07 0.3 145.2-0.48 144.32-1.25 144.32-2.7L144.32-2.7 144.32-15.01Q144.32-17.76 143.34-18.94 142.37-20.12 140.37-20.12L140.37-20.12Q137.91-20.12 136.46-18.44 135.01-16.76 135.01-13.86L135.01-13.86 135.01-2.7Q135.01-1.25 134.14-0.48 133.26 0.3 131.91 0.3L131.91 0.3Q130.56 0.3 129.66-0.48 128.76-1.25 128.76-2.7L128.76-2.7 128.76-15.01Q128.76-17.76 127.78-18.94 126.81-20.12 124.8-20.12L124.8-20.12Q122.35-20.12 120.93-18.44 119.5-16.76 119.5-13.86L119.5-13.86 119.5-2.7Q119.5-1.25 118.6-0.48 117.7 0.3 116.35 0.3L116.35 0.3Q115 0.3 114.12-0.48 113.24-1.25 113.24-2.7L113.24-2.7 113.24-22.07Q113.24-23.47 114.15-24.22 115.05-24.97 116.4-24.97L116.4-24.97Q117.7-24.97 118.52-24.25 119.35-23.52 119.35-22.17L119.35-22.17 119.35-20.97Q120.5-22.97 122.43-24.02 124.35-25.07 126.86-25.07L126.86-25.07Q132.36-25.07 134.21-20.47L134.21-20.47Q135.31-22.57 137.46-23.82 139.62-25.07 142.32-25.07L142.32-25.07ZM173.99-23.17Q174.4-24.07 175.07-24.5 175.75-24.92 176.55-24.92L176.55-24.92Q177.7-24.92 178.62-24.15 179.55-23.37 179.55-22.22L179.55-22.22Q179.55-21.67 179.25-21.07L179.25-21.07 165.59 7.56Q164.74 9.26 162.94 9.26L162.94 9.26Q161.78 9.26 160.91 8.53 160.03 7.81 160.03 6.71L160.03 6.71Q160.03 6.16 160.33 5.45L160.33 5.45 163.74-1.7 154.43-21.07Q154.18-21.57 154.18-22.22L154.18-22.22Q154.18-23.37 155.15-24.17 156.13-24.97 157.38-24.97L157.38-24.97Q158.23-24.97 158.93-24.55 159.63-24.12 160.03-23.22L160.03-23.22 167.04-7.76 173.99-23.17Z" transform="translate(-3.799999952316284, 35.279998779296875)"></path></g> <!----> <!----> <!----> <!----> <!----> <!----> <!----></g></g> <!----></g></g><defs v-gra="od"></defs></svg>